<svg xmlns="http://www.w3.org/2000/svg" width="512" height="513" fill="none"><style>@media (prefers-color-scheme:dark){path{fill:#7D8FC1}}</style><path fill="#374777" fill-rule="evenodd" d="m255.607 122.238-48.237 48.237-38.776-38.8 82.748-82.7h8.529l82.699 82.7-38.727 38.8-48.236-48.237Zm134.345 134.366-48.237 48.237 38.751 38.776 82.773-82.748v-8.53l-82.773-82.748-38.751 38.8 48.237 48.213Zm-138.61 207.63-82.748-82.773 38.776-38.702 48.237 48.188 48.236-48.188 38.727 38.702-82.699 82.773h-8.529ZM47.972 260.869v-8.53l82.7-82.748 38.775 38.776-48.237 48.237 48.237 48.237-38.775 38.776-82.7-82.748Z" clip-rule="evenodd"/></svg>
